<?xml version="1.0" encoding="UTF-8"?>
<svg id="Layer_1" data-name="Layer 1" xmlns="http://www.w3.org/2000/svg" viewBox="0 0 32 31.54">
  <defs>
    <style>
      .cls-1 {
        fill: #130e43;
      }
    </style>
  </defs>
  <path class="cls-1" d="M12.1,25.35l.11-.69c-3.75-1.23-4.64-4.26-4.64-7.88,0-5.1,3.98-9.35,8.36-9.35,1.98,0,2.7,.79,2.7,1.75,0,2.32-4.32,5.35-8.54,5.35-3.22,0-4.89-1.89-4.89-3.94,0-3.64,4.16-7.33,10.15-7.33,5.26,0,7.92,2.5,7.92,6.03,0,6.75-8.58,13.3-14.87,13.3-3.74,0-5.79-1.97-5.79-4.39,0-4.44,6.23-13.1,13.36-13.1,2.51,0,4.56,1.6,4.56,3.87,0,4.36-5.25,8.7-10.6,8.7-6.01,0-8.61-2.95-8.61-6.15C1.3,5.95,8.72,1.06,16.09,1.06c8.04,0,13.26,6.18,12.21,11.04-.38,1.75-.18,2.89,1.15,4.94,1.21,1.86,1.34,2.27,.36,3.45s-.94,1.91-.5,4.52c.35,2.06-.6,2.53-1.97,2.53-1.52,0-3.29-.45-4.55-.46-2.25-.02-4.31,.79-4.72,4.33l.65,.12c.48-1.49,.89-4.2,6.69-2.96,4.41,.95,5.35-.66,5.35-2.84,0-.65-.08-1.13-.2-1.6-.49-1.96-.41-2.34,.6-3.32,1.25-1.22,1.08-2.3-.12-3.88-1.48-1.95-2.08-2.43-1.72-3.79C31.3,5.46,24.41,0,16.09,0S0,5.02,0,11.85c0,4.7,4.61,7.17,9.59,6.97,5.81-.23,12.12-3.97,12.12-10.33,0-4.01-6.22-6.67-12.46-2.39C3.44,10.01,1.31,14.74,1.31,17.88c0,3.41,1.67,5.69,6.75,5.69,9.7,0,16.57-8.85,16.57-13.62,0-5.15-3.04-8.11-9-8.11C10.67,1.84,3.83,4.99,3.83,10.33c0,3.93,2.39,5.49,5.32,5.49,6.67,0,10.64-3.87,10.64-6.37s-2.04-3.34-3.87-3.34c-6.15,0-9.49,5.87-9.49,9.98s1.36,8.34,5.67,9.27Z"/>
</svg>