<?xml version="1.0" encoding="utf-8"?>
<!-- Generator: Adobe Illustrator 26.4.1, SVG Export Plug-In . SVG Version: 6.00 Build 0)  -->
<svg version="1.1" id="Layer_1" xmlns="http://www.w3.org/2000/svg" xmlns:xlink="http://www.w3.org/1999/xlink" x="0px" y="0px"
	 viewBox="0 0 177 24" style="enable-background:new 0 0 177 24;" xml:space="preserve">
<style type="text/css">
	.st0{fill:#01B4D2;}
	.st1{fill:#FFFFFF;}
</style>
<g>
	<path class="st0" d="M24.9,13c-1.1-1.5-1.6-1.8-1.3-2.9c1.5-5.8-3.7-10-10-10c-6.1,0-12.2,3.8-12.2,9c0,1.3,0.4,2.3,1.2,3.1
		c-0.1,0.5-0.2,1-0.2,1.4c0,2.6,1.3,4.3,5.1,4.3c0.2,0,0.4,0,0.6,0c0.6,0.7,1.4,1.1,2.5,1.4l0.1-0.5C10,18.6,9.4,18.3,9,17.9
		c6.6-0.8,11.1-6.9,11.1-10.2c0-3.9-2.3-6.1-6.8-6.1c-3.8,0-9,2.4-9,6.4c0,0.2,0,0.4,0,0.6C3.7,9.4,3.3,10.2,3,11
		c-0.4-0.7-0.6-1.4-0.6-2.1C2.4,4.7,8,1,13.6,1c6.1,0,10.1,4.7,9.3,8.4c-0.3,1.3-0.1,2.2,0.9,3.8c0.9,1.4,1,1.7,0.3,2.6
		c-0.8,0.9-0.7,1.4-0.4,3.4c0.3,1.6-0.5,1.9-1.5,1.9c-1.1,0-2.5-0.3-3.5-0.3c-1.7,0-3.3,0.6-3.6,3.3l0.5,0.1
		c0.4-1.1,0.7-3.2,5.1-2.2c3.3,0.7,4.1-0.5,4.1-2.2c0-0.5-0.1-0.9-0.2-1.2c-0.4-1.5-0.3-1.8,0.5-2.5C26,15,25.8,14.2,24.9,13z
		 M3.4,13.9c0-0.3,0-0.6,0.1-0.9c0.8,0.6,1.8,1,3,1.2c0.2,1.1,0.5,2.1,1.1,3C4.8,17.1,3.4,15.7,3.4,13.9z M13,2.6c4,0,6,1.9,6,4.6
		c0,4.9-6.1,9.7-10.8,10.1c-0.6-0.8-0.9-1.8-1.1-2.9c0.5,0.1,1,0.1,1.5,0c4.4-0.2,9.2-3,9.2-7.8c0-3-4.7-5.1-9.4-1.8
		c-1.2,0.8-2.2,1.6-3,2.5C6.1,4.8,9,2.6,13,2.6z M7.2,12.8c0-0.3,0-0.6,0.1-0.9C7.7,12,8,12,8.4,12c5.1,0,8.1-2.9,8.1-4.8
		S15,4.7,13.6,4.7c-3.8,0-6.2,2.9-6.9,5.7C6,10,5.6,9.5,5.5,8.9c1.8-2.6,4.8-4.9,8-4.9C15.4,4,17,5.2,17,6.9c0,3.3-4,6.6-8,6.6
		c-0.6,0-1.2-0.1-1.8-0.1C7.2,13.2,7.2,13,7.2,12.8z M7.4,10.9c0.8-2.9,3.3-5.1,6.1-5.1c1.5,0,2,0.6,2,1.3c0,1.8-3.3,4.1-6.5,4.1
		C8.4,11.1,7.9,11,7.4,10.9z M6.3,11.7c0,0.2,0,0.4,0,0.6c0,0.3,0,0.6,0,0.9c-1.1-0.3-1.9-0.7-2.5-1.3C4,11.3,4.3,10.7,4.7,10
		C5.1,10.8,5.6,11.4,6.3,11.7z"/>
	<g>
		<path class="st1" d="M63.3,7.9c-0.7-0.4-1.5-0.5-2.4-0.5c-1.1,0-2.1,0.3-2.9,0.8c-0.5,0.3-0.9,0.7-1.2,1.1c-0.3-0.4-0.6-0.8-1-1.1
			c-0.8-0.5-1.7-0.8-2.7-0.8c-0.9,0-1.7,0.2-2.5,0.6c-0.4,0.2-0.8,0.5-1.1,0.9V7.5h-3.1v11.3h3.3v-5.6c0-0.7,0.1-1.2,0.3-1.7
			c0.2-0.4,0.5-0.8,0.9-1s0.8-0.3,1.3-0.3c0.7,0,1.2,0.2,1.6,0.7c0.4,0.4,0.6,1.1,0.6,2v5.9h3.3v-5.6c0-0.7,0.1-1.2,0.3-1.7
			c0.2-0.4,0.5-0.8,0.9-1s0.8-0.3,1.3-0.3c0.7,0,1.2,0.2,1.6,0.7c0.4,0.4,0.6,1.1,0.6,2v5.9h3.3v-6.4c0-1.1-0.2-2.1-0.6-2.8
			C64.5,8.8,64,8.3,63.3,7.9z"/>
		<path class="st1" d="M70.8,2.8c-0.4-0.3-0.9-0.5-1.5-0.5s-1.1,0.2-1.5,0.5c-0.4,0.4-0.6,0.8-0.6,1.3s0.2,0.9,0.6,1.3
			C68.2,5.8,68.7,6,69.3,6s1.1-0.2,1.5-0.5c0.4-0.4,0.6-0.8,0.6-1.3C71.4,3.6,71.2,3.1,70.8,2.8z"/>
		<rect x="67.7" y="7.5" class="st1" width="3.3" height="11.3"/>
		<path class="st1" d="M82.5,7.9c-0.7-0.4-1.5-0.5-2.4-0.5c-1,0-1.8,0.2-2.6,0.6c-0.4,0.2-0.8,0.5-1.2,0.9V7.5h-3.1v11.3h3.3v-5.6
			c0-0.7,0.1-1.3,0.4-1.7s0.5-0.8,1-1c0.4-0.2,0.9-0.3,1.4-0.3c0.7,0,1.3,0.2,1.7,0.7c0.4,0.4,0.6,1.1,0.6,2v6h3.3v-6.5
			c0-1.1-0.2-2.1-0.6-2.8C83.8,8.8,83.2,8.3,82.5,7.9z"/>
		<path class="st1" d="M95.5,8.7C95.3,8.4,95,8.2,94.7,8c-0.7-0.4-1.5-0.6-2.5-0.6c-1.1,0-2,0.2-2.9,0.7c-0.8,0.5-1.5,1.2-2,2
			c-0.5,0.9-0.7,1.9-0.7,3.1s0.2,2.2,0.7,3.1c0.5,0.9,1.2,1.5,2,2s1.8,0.7,2.9,0.7c1,0,1.8-0.2,2.5-0.6c0.4-0.2,0.7-0.5,1-0.8v1.3
			h3.1V3.3h-3.3L95.5,8.7L95.5,8.7z M95.2,14.8c-0.3,0.5-0.6,0.8-1,1.1c-0.4,0.2-0.9,0.4-1.5,0.4c-0.5,0-1-0.1-1.4-0.4
			c-0.4-0.2-0.8-0.6-1-1.1s-0.4-1-0.4-1.7s0.1-1.2,0.4-1.7s0.6-0.8,1-1.1c0.4-0.2,0.9-0.4,1.4-0.4s1,0.1,1.5,0.4
			c0.4,0.2,0.8,0.6,1,1.1s0.4,1,0.4,1.7C95.6,13.8,95.5,14.4,95.2,14.8z"/>
		<path class="st1" d="M106.1,17.2c-0.2,0-0.4,0.1-0.5,0.1c-0.6,0-1-0.2-1.3-0.5s-0.4-0.8-0.4-1.4V3.3h-2v12.3
			c0,1.1,0.3,1.9,0.9,2.5s1.4,0.9,2.5,0.9c0.2,0,0.5,0,0.7-0.1s0.5-0.1,0.7-0.2l-0.1-1.7C106.4,17.1,106.2,17.1,106.1,17.2z"/>
		<path class="st1" d="M116.1,12.9c0,0.8-0.1,1.5-0.4,2c-0.3,0.6-0.7,1-1.2,1.3s-1.1,0.4-1.8,0.4c-0.9,0-1.7-0.3-2.2-0.8
			c-0.5-0.5-0.8-1.3-0.8-2.4V7.7h-2v5.8c0,1.1,0.2,2,0.6,2.7s0.9,1.3,1.7,1.6c0.7,0.4,1.6,0.5,2.5,0.5s1.7-0.2,2.5-0.6
			c0.5-0.3,0.9-0.6,1.2-1v0.8c0,1.3-0.3,2.2-0.8,2.8c-0.6,0.6-1.5,0.9-2.7,0.9c-0.8,0-1.5-0.1-2.2-0.4s-1.3-0.6-1.8-1l-1,1.6
			c0.6,0.5,1.3,0.9,2.2,1.2c0.9,0.3,1.8,0.4,2.8,0.4c1.8,0,3.1-0.5,4.1-1.4c0.9-0.9,1.4-2.4,1.4-4.3V7.7h-2L116.1,12.9L116.1,12.9z"
			/>
		<path class="st1" d="M125,17.3c-0.6,0-1-0.2-1.3-0.5s-0.4-0.8-0.4-1.4v-6h3.2V7.7h-3.2V5.3h-2v10.2c0,1.1,0.3,2,0.9,2.6
			s1.5,0.9,2.6,0.9c0.4,0,0.9-0.1,1.3-0.2s0.8-0.3,1.1-0.6l-0.6-1.4C126.2,17.1,125.6,17.3,125,17.3z"/>
		<path class="st1" d="M130.1,3c-0.4,0-0.7,0.1-1,0.4s-0.4,0.6-0.4,0.9c0,0.4,0.1,0.7,0.4,0.9c0.3,0.3,0.6,0.4,1,0.4s0.7-0.1,1-0.4
			s0.4-0.6,0.4-0.9c0-0.4-0.1-0.7-0.4-0.9C130.9,3.1,130.5,3,130.1,3z"/>
		<rect x="129.1" y="7.7" class="st1" width="2" height="11.1"/>
		<path class="st1" d="M137.4,9.8c0.6-0.3,1.2-0.5,2-0.5c0.6,0,1.2,0.1,1.7,0.4c0.5,0.3,1,0.7,1.3,1.2l1.5-1c-0.4-0.8-1-1.4-1.8-1.8
			c-0.8-0.4-1.7-0.6-2.7-0.6c-1.1,0-2.1,0.2-3,0.7s-1.6,1.2-2.1,2s-0.8,1.8-0.8,2.9s0.3,2.1,0.8,2.9s1.2,1.5,2.1,2
			c0.9,0.5,1.9,0.7,3,0.7c1,0,1.9-0.2,2.7-0.6s1.4-1,1.8-1.8l-1.5-1c-0.4,0.5-0.8,0.9-1.3,1.2c-0.5,0.3-1.1,0.4-1.7,0.4
			c-0.7,0-1.4-0.2-2-0.5s-1-0.8-1.4-1.4c-0.3-0.6-0.5-1.3-0.5-2.1s0.2-1.5,0.5-2.1C136.4,10.6,136.8,10.2,137.4,9.8z"/>
		<path class="st1" d="M153.3,13.3c-0.4-0.2-0.9-0.4-1.4-0.5s-1-0.2-1.5-0.3s-1-0.2-1.4-0.3s-0.8-0.3-1-0.5
			c-0.3-0.2-0.4-0.5-0.4-0.9s0.2-0.8,0.7-1.1c0.4-0.3,1.1-0.4,2-0.4c0.5,0,1.1,0.1,1.6,0.2c0.5,0.1,1.1,0.4,1.6,0.7l0.8-1.6
			c-0.5-0.3-1.1-0.6-1.8-0.8c-0.8-0.2-1.5-0.3-2.2-0.3c-0.9,0-1.8,0.1-2.5,0.4c-0.7,0.3-1.2,0.7-1.6,1.2s-0.6,1.1-0.6,1.8
			c0,0.6,0.1,1.2,0.4,1.5c0.3,0.4,0.6,0.7,1,0.9s0.9,0.4,1.4,0.5s1,0.2,1.5,0.3s1,0.2,1.4,0.3s0.8,0.2,1,0.4
			c0.3,0.2,0.4,0.5,0.4,0.8c0,0.5-0.2,0.8-0.6,1.1c-0.4,0.3-1.1,0.4-2,0.4c-0.7,0-1.4-0.1-2.1-0.3c-0.7-0.2-1.3-0.5-1.8-0.8
			l-0.8,1.6c0.5,0.4,1.1,0.7,2,0.9c0.8,0.3,1.7,0.4,2.6,0.4c1,0,1.8-0.1,2.5-0.4s1.3-0.7,1.7-1.1c0.4-0.5,0.6-1.1,0.6-1.7
			c0-0.6-0.1-1.1-0.4-1.5C154.1,13.8,153.7,13.5,153.3,13.3z"/>
		<path class="st1" d="M157.3,16.1c-0.4,0-0.7,0.1-1,0.4s-0.4,0.6-0.4,1s0.1,0.8,0.4,1c0.3,0.3,0.6,0.4,1,0.4s0.7-0.1,1-0.4
			s0.4-0.6,0.4-1s-0.1-0.8-0.4-1C158,16.2,157.7,16.1,157.3,16.1z"/>
		<path class="st1" d="M168.6,9.5c-0.4-0.5-0.8-0.9-1.3-1.2c-0.8-0.4-1.6-0.6-2.5-0.6c-1.1,0-2,0.2-2.8,0.7s-1.5,1.1-2,2
			c-0.5,0.8-0.7,1.8-0.7,2.9s0.2,2.1,0.7,2.9s1.1,1.5,2,2c0.8,0.5,1.8,0.7,2.8,0.7c0.9,0,1.8-0.2,2.5-0.6c0.5-0.3,1-0.7,1.4-1.2v1.7
			h1.9V7.9h-2L168.6,9.5L168.6,9.5z M168.2,15.4c-0.3,0.6-0.8,1-1.3,1.3c-0.6,0.3-1.2,0.5-1.9,0.5s-1.3-0.2-1.9-0.5
			c-0.6-0.3-1-0.8-1.3-1.3c-0.3-0.6-0.5-1.3-0.5-2c0-0.8,0.2-1.5,0.5-2c0.3-0.6,0.8-1,1.3-1.3s1.2-0.5,1.9-0.5s1.3,0.2,1.9,0.5
			c0.6,0.3,1,0.8,1.3,1.3c0.3,0.6,0.5,1.3,0.5,2C168.7,14.1,168.5,14.8,168.2,15.4z"/>
		<rect x="173.5" y="7.9" class="st1" width="2" height="10.9"/>
		<path class="st1" d="M174.5,5.8c0.4,0,0.7-0.1,1-0.4c0.2-0.3,0.4-0.6,0.4-0.9c0-0.4-0.1-0.7-0.4-0.9c-0.3-0.2-0.6-0.4-1-0.4
			s-0.7,0.1-1,0.4c-0.3,0.2-0.4,0.6-0.4,0.9c0,0.4,0.1,0.7,0.4,0.9C173.7,5.7,174.1,5.8,174.5,5.8z"/>
	</g>
</g>
</svg>
