<?xml version="1.0" encoding="utf-8"?>
<!-- Generator: Adobe Illustrator 26.4.1, SVG Export Plug-In . SVG Version: 6.00 Build 0)  -->
<svg version="1.1" id="Layer_1" xmlns="http://www.w3.org/2000/svg" xmlns:xlink="http://www.w3.org/1999/xlink" x="0px" y="0px"
	 viewBox="0 0 362 229" style="enable-background:new 0 0 362 229;" xml:space="preserve">
<style type="text/css">
	.st0{fill:#0A0045;}
</style>
<g>
	<path class="st0" d="M252.3,78.4c-6.4-8.4-9-10.5-7.4-16.4c8.7-33.2-21.2-56.9-57.2-56.9c-34.6,0-69.6,21.7-69.6,51.3
		c0,7.2,2.5,13.2,6.7,17.9c-0.7,3-1,5.7-1,8.3c0,14.8,7.2,24.6,29.2,24.6c1.1,0,2.2,0,3.3-0.1c3.6,3.8,8.2,6.5,14.2,7.8l0.5-3
		c-4-1.3-7.2-3.1-9.8-5.2c37.6-4.5,63.5-39.2,63.5-58.4c0-22.3-13.2-35.1-38.9-35.1c-21.5,0-51.1,13.6-51.1,36.7
		c0,1.2,0.1,2.4,0.2,3.5c-3.4,4.7-6,9.4-7.8,13.8c-2.2-3.7-3.3-7.9-3.3-12.2c0-24,32.1-45.2,64-45.2c34.8,0,57.4,26.7,52.8,47.8
		c-1.6,7.6-0.8,12.5,5,21.4c5.2,8.1,5.8,9.8,1.6,14.9c-4.4,5.2-4.1,8.3-2.2,19.5c1.5,8.9-2.6,11-8.5,11c-6.6,0-14.2-2-19.7-2
		c-9.7-0.1-18.7,3.4-20.4,18.7l2.8,0.5c2.1-6.5,3.9-18.2,28.9-12.8c19.1,4.1,23.2-2.9,23.2-12.3c0-2.8-0.3-4.9-0.8-6.9
		c-2.1-8.5-1.8-10.1,2.6-14.4C258.3,90,257.5,85.3,252.3,78.4z M129.3,83.9c0-1.6,0.2-3.3,0.5-5c4.7,3.4,10.5,5.6,16.9,6.8
		c1,6.3,2.9,12.2,6.1,17.1C137.7,102.3,129.3,94,129.3,83.9z M184.5,19.2c22.8,0,34.3,10.8,34.3,26.1c0,28.2-34.5,55.5-61.4,57.4
		c-3.5-4.5-5.2-10.1-6-16.4c2.7,0.3,5.5,0.4,8.3,0.2c25.1-1,52.5-17.2,52.5-44.7c0-17.4-26.9-28.9-53.9-10.4
		c-6.7,4.5-12.3,9.3-16.9,14.2C144.7,31.9,161.5,19.2,184.5,19.2z M150.9,77.8c0-1.6,0.1-3.2,0.3-4.8c2.1,0.5,4.3,0.7,6.5,0.7
		c28.9,0,46.1-16.7,46.1-27.6c0-11-8.8-14.5-16.7-14.5c-21.6,0-35.1,16.7-39.5,32.5c-3.3-2.3-5.4-5.5-6.3-8.9
		c10.8-14.8,27.7-28,46-28c10.9,0,19.7,6.9,19.7,16.8c0,18.9-22.7,37.7-45.9,37.7c-3.7,0-7-0.3-10.1-0.7
		C150.9,79.9,150.9,78.8,150.9,77.8z M152.4,66.6c4.6-16.8,19-29.2,34.6-29.2c8.6,0,11.7,3.4,11.7,7.6c0,10-18.7,23.2-37,23.2
		C158.2,68,155.1,67.5,152.4,66.6z M146.1,71.2c-0.1,1.2-0.2,2.4-0.2,3.5c0,1.7,0.1,3.4,0.2,5.1c-6.1-1.5-10.9-4.1-14.5-7.3
		c1.3-3.5,3-7.2,5.2-11C138.9,66.2,142.1,69.3,146.1,71.2z"/>
	<g>
		<path class="st0" d="M50.1,183.5c-1.9-1-4-1.4-6.4-1.4c-2.9,0-5.5,0.7-7.7,2.1c-1.3,0.8-2.3,1.8-3.2,2.9c-0.7-1.2-1.6-2.1-2.7-2.9
			c-2.1-1.4-4.6-2.1-7.3-2.1c-2.5,0-4.6,0.5-6.6,1.6c-1.1,0.6-2.1,1.4-2.9,2.3v-3.5H4.8v30.4h8.8v-15.2c0-1.8,0.3-3.3,0.9-4.5
			c0.6-1.2,1.4-2,2.4-2.6c1-0.6,2.2-0.9,3.5-0.9c1.9,0,3.3,0.6,4.3,1.8s1.5,3,1.5,5.4v16h8.8v-15.2c0-1.8,0.3-3.3,0.8-4.5
			c0.5-1.2,1.3-2,2.3-2.6c1-0.6,2.2-0.9,3.5-0.9c1.8,0,3.2,0.6,4.2,1.8s1.5,3,1.5,5.4v16h8.8v-17.4c0-3.1-0.5-5.6-1.6-7.6
			C53.4,186,52,184.5,50.1,183.5z"/>
		<path class="st0" d="M66.4,168.5c-1.7,0-3,0.5-4,1.4c-1,0.9-1.5,2.1-1.5,3.5s0.5,2.6,1.5,3.5s2.4,1.4,4,1.4s3-0.5,4-1.4
			c1-1,1.5-2.2,1.5-3.6c0-1.4-0.5-2.5-1.5-3.4C69.3,168.9,68,168.5,66.4,168.5z"/>
		<rect x="62" y="182.5" class="st0" width="8.8" height="30.4"/>
		<path class="st0" d="M101.9,183.5c-1.9-1-4.1-1.4-6.5-1.4c-2.6,0-4.9,0.5-7,1.6c-1.2,0.7-2.2,1.5-3.1,2.5v-3.7h-8.4v30.4h8.8v-15
			c0-1.9,0.3-3.5,0.9-4.6s1.5-2,2.6-2.7c1.1-0.6,2.4-0.9,3.8-0.9c2,0,3.5,0.6,4.5,1.8c1.1,1.2,1.6,3,1.6,5.4v16h8.8v-17.4
			c0-3.1-0.5-5.6-1.6-7.6C105.3,186,103.8,184.5,101.9,183.5z"/>
		<path class="st0" d="M136.9,185.7c-0.7-0.8-1.5-1.4-2.4-2c-1.9-1.1-4.2-1.7-6.7-1.7c-2.9,0-5.4,0.7-7.7,2s-4.1,3.1-5.4,5.5
			c-1.3,2.3-2,5.1-2,8.2c0,3.2,0.7,5.9,2,8.2s3.1,4.2,5.4,5.5c2.3,1.3,4.9,2,7.7,2c2.7,0,5-0.6,6.9-1.7c1-0.6,1.9-1.3,2.6-2.3v3.5
			h8.4V171H137L136.9,185.7L136.9,185.7z M136.1,202.2c-0.7,1.3-1.6,2.2-2.8,2.9c-1.2,0.7-2.5,1-4,1c-1.4,0-2.7-0.3-3.9-1
			c-1.2-0.7-2.1-1.6-2.8-2.9c-0.7-1.3-1-2.8-1-4.5c0-1.8,0.4-3.3,1-4.5c0.7-1.2,1.6-2.2,2.8-2.8c1.2-0.7,2.5-1,3.9-1
			c1.5,0,2.8,0.3,4,1c1.2,0.7,2.1,1.6,2.8,2.8c0.7,1.2,1,2.8,1,4.5C137.1,199.5,136.8,201,136.1,202.2z"/>
		<path class="st0" d="M165.3,208.5c-0.5,0.1-1,0.2-1.5,0.2c-1.5,0-2.7-0.4-3.5-1.3s-1.2-2.1-1.2-3.7V171h-5.4v33.1
			c0,2.9,0.8,5.1,2.4,6.7s3.8,2.4,6.7,2.4c0.6,0,1.3-0.1,2-0.2s1.3-0.3,1.9-0.5l-0.3-4.5C166.2,208.3,165.8,208.4,165.3,208.5z"/>
		<path class="st0" d="M192.5,196.9c0,2.2-0.4,4-1.1,5.5s-1.8,2.6-3.2,3.4c-1.4,0.8-3,1.1-4.9,1.1c-2.6,0-4.5-0.7-6-2.2
			s-2.1-3.7-2.1-6.5V183h-5.4v15.7c0,2.9,0.5,5.3,1.6,7.3s2.6,3.4,4.5,4.3s4.2,1.4,6.8,1.4c2.5,0,4.7-0.5,6.6-1.6
			c1.3-0.7,2.4-1.7,3.3-2.8v2.2c0,3.4-0.8,5.9-2.3,7.5c-1.5,1.6-4,2.5-7.3,2.5c-2.1,0-4-0.3-5.9-1c-1.9-0.7-3.5-1.6-4.8-2.8
			l-2.7,4.2c1.6,1.4,3.6,2.5,6.1,3.3c2.4,0.8,4.9,1.2,7.5,1.2c4.8,0,8.5-1.2,11-3.7c2.5-2.5,3.7-6.4,3.7-11.6V183h-5.4L192.5,196.9
			L192.5,196.9z"/>
		<path class="st0" d="M216.4,208.7c-1.5,0-2.7-0.4-3.5-1.3s-1.2-2.1-1.2-3.7v-16.2h8.6V183h-8.6v-6.5h-5.4v27.5c0,3,0.8,5.3,2.5,7
			s4,2.4,7,2.4c1.2,0,2.4-0.2,3.6-0.5s2.2-0.9,3-1.6l-1.7-3.9C219.5,208.2,218.1,208.7,216.4,208.7z"/>
		<rect x="227.5" y="183" class="st0" width="5.4" height="29.9"/>
		<path class="st0" d="M230.2,170.2c-1,0-1.9,0.3-2.6,1s-1,1.5-1,2.5c0,1,0.3,1.8,1,2.5s1.6,1,2.6,1c1.1,0,2-0.3,2.7-1s1-1.5,1-2.6
			c0-1-0.3-1.8-1-2.5C232.2,170.5,231.3,170.2,230.2,170.2z"/>
		<path class="st0" d="M249.8,188.7c1.5-0.9,3.3-1.3,5.2-1.3c1.6,0,3.1,0.3,4.5,1s2.6,1.8,3.6,3.2l4.1-2.7c-1.2-2.1-2.8-3.7-4.9-4.8
			c-2.1-1.1-4.5-1.6-7.3-1.6c-3,0-5.8,0.7-8.2,2c-2.4,1.3-4.3,3.1-5.6,5.4c-1.4,2.3-2,4.9-2,7.9s0.7,5.6,2,7.9
			c1.4,2.3,3.2,4.1,5.6,5.4c2.4,1.3,5.1,2,8.2,2c2.7,0,5.1-0.6,7.3-1.7s3.8-2.7,4.9-4.8l-4.1-2.6c-1,1.5-2.2,2.5-3.6,3.2
			c-1.4,0.7-2.9,1-4.5,1c-2,0-3.7-0.4-5.2-1.3s-2.8-2.1-3.7-3.7c-0.9-1.6-1.4-3.5-1.4-5.6c0-2.2,0.5-4,1.4-5.6
			C247,190.8,248.2,189.6,249.8,188.7z"/>
		<path class="st0" d="M292.8,198c-1.1-0.6-2.3-1-3.7-1.3s-2.7-0.6-4.1-0.8c-1.4-0.2-2.6-0.5-3.7-0.8s-2-0.7-2.7-1.3
			c-0.7-0.5-1-1.3-1-2.3c0-1.2,0.6-2.2,1.8-3c1.2-0.8,2.9-1.2,5.3-1.2c1.5,0,2.9,0.2,4.4,0.5s2.9,1,4.2,1.9l2.3-4.3
			c-1.3-0.9-2.9-1.5-4.9-2c-2-0.5-4-0.7-6-0.7c-2.6,0-4.8,0.4-6.6,1.1c-1.9,0.7-3.3,1.8-4.3,3.1c-1,1.4-1.5,2.9-1.5,4.8
			c0,1.7,0.3,3.1,1,4.2c0.7,1,1.6,1.8,2.7,2.4s2.4,1,3.7,1.4s2.7,0.6,4.1,0.8c1.4,0.2,2.6,0.4,3.7,0.7c1.1,0.3,2,0.7,2.7,1.2
			c0.7,0.5,1,1.3,1,2.2c0,1.3-0.6,2.3-1.7,3c-1.1,0.7-2.9,1.1-5.5,1.1c-2,0-3.9-0.3-5.8-0.9c-1.9-0.6-3.5-1.3-4.8-2.2l-2.3,4.3
			c1.3,1,3,1.8,5.3,2.5c2.2,0.7,4.6,1,7.1,1c2.7,0,5-0.4,6.9-1.1c1.9-0.7,3.4-1.8,4.5-3.1c1-1.3,1.6-2.9,1.6-4.7c0-1.7-0.3-3-1-4.1
			C294.8,199.3,293.9,198.5,292.8,198z"/>
		<path class="st0" d="M303.5,205.6c-1,0-1.9,0.3-2.7,1.1c-0.7,0.7-1.1,1.6-1.1,2.7c0,1.1,0.4,2,1.1,2.8s1.6,1.1,2.7,1.1
			c1,0,1.9-0.4,2.6-1.1c0.7-0.7,1.1-1.6,1.1-2.8s-0.4-2-1.1-2.7C305.4,206,304.5,205.6,303.5,205.6z"/>
		<path class="st0" d="M334,188c-1-1.3-2.2-2.3-3.6-3.1c-2-1.1-4.2-1.7-6.7-1.7c-2.9,0-5.4,0.6-7.7,1.9c-2.2,1.3-4,3-5.3,5.3
			c-1.3,2.2-2,4.9-2,7.9s0.7,5.6,2,7.9s3.1,4,5.3,5.3s4.8,1.9,7.7,1.9c2.6,0,4.8-0.6,6.8-1.7c1.4-0.8,2.7-1.9,3.7-3.3v4.7h5.1v-29.5
			H334V188z M332.8,203.7c-0.9,1.6-2.1,2.8-3.6,3.6c-1.5,0.8-3.2,1.3-5,1.3c-1.9,0-3.6-0.4-5.1-1.3c-1.5-0.8-2.7-2.1-3.6-3.6
			c-0.9-1.6-1.3-3.4-1.3-5.5c0-2.1,0.5-3.9,1.3-5.5s2.1-2.7,3.6-3.6c1.5-0.8,3.2-1.3,5.1-1.3c1.8,0,3.5,0.4,5,1.3
			c1.5,0.8,2.7,2,3.6,3.6c0.9,1.5,1.3,3.4,1.3,5.5C334.1,200.3,333.7,202.1,332.8,203.7z"/>
		<path class="st0" d="M349.7,177.8c1.1,0,2-0.3,2.6-1c0.7-0.7,1-1.5,1-2.5c0-1-0.3-1.8-1-2.4c-0.7-0.7-1.5-1-2.6-1
			c-1,0-1.9,0.3-2.6,1s-1,1.5-1,2.5c0,1,0.3,1.8,1,2.5C347.8,177.5,348.6,177.8,349.7,177.8z"/>
		<rect x="347" y="183.5" class="st0" width="5.3" height="29.5"/>
	</g>
</g>
</svg>
