<?xml version="1.0" encoding="utf-8"?>
<!-- Generator: Adobe Illustrator 26.4.1, SVG Export Plug-In . SVG Version: 6.00 Build 0)  -->
<svg version="1.1" id="Layer_1" xmlns="http://www.w3.org/2000/svg" xmlns:xlink="http://www.w3.org/1999/xlink" x="0px" y="0px"
	 viewBox="0 0 210.8 47" style="enable-background:new 0 0 210.8 47;" xml:space="preserve">
<style type="text/css">
	.st0{fill:#01B4D2;}
	.st1{fill:#0A0045;}
</style>
<g>
	<path class="st0" d="M46.2,25.3c-1.7-2.6-2.5-3.3-2-5.1C46.6,9.8,38.4,2.5,28.6,2.5c-9.5,0-19,6.8-19,16c0,2.2,0.7,4.1,1.8,5.6
		c-0.2,0.9-0.3,1.8-0.3,2.6c0,4.6,2,7.7,8,7.7c0.3,0,0.6,0,0.9,0c1,1.2,2.3,2,3.9,2.4l0.1-0.9c-1.1-0.4-2-1-2.7-1.6
		c10.3-1.4,17.4-12.2,17.4-18.2c0-6.9-3.6-10.9-10.6-10.9c-5.9,0-14,4.2-14,11.4c0,0.4,0,0.7,0,1.1c-0.9,1.5-1.6,2.9-2.1,4.3
		c-0.6-1.2-0.9-2.5-0.9-3.8c0-7.5,8.8-14.1,17.5-14.1c9.5,0,15.7,8.3,14.4,14.9c-0.4,2.4-0.2,3.9,1.4,6.7c1.4,2.5,1.6,3.1,0.4,4.6
		c-1.2,1.6-1.1,2.6-0.6,6.1c0.4,2.8-0.7,3.4-2.3,3.4c-1.8,0-3.9-0.6-5.4-0.6c-2.7,0-5.1,1.1-5.6,5.8l0.8,0.2c0.6-2,1.1-5.7,7.9-4
		c5.2,1.3,6.3-0.9,6.3-3.8c0-0.9-0.1-1.5-0.2-2.2c-0.6-2.6-0.5-3.2,0.7-4.5C47.9,28.9,47.7,27.4,46.2,25.3z M12.6,27
		c0-0.5,0.1-1,0.1-1.6c1.3,1,2.9,1.8,4.6,2.1c0.3,2,0.8,3.8,1.7,5.3C14.9,32.7,12.6,30.2,12.6,27z M27.7,6.8c6.2,0,9.4,3.4,9.4,8.1
		c0,8.8-9.4,17.3-16.8,17.9c-0.9-1.4-1.4-3.2-1.6-5.1c0.7,0.1,1.5,0.1,2.3,0.1c6.9-0.3,14.3-5.4,14.3-13.9c0-5.4-7.4-9-14.7-3.2
		c-1.8,1.4-3.4,2.9-4.6,4.4C16.8,10.8,21.4,6.8,27.7,6.8z M18.5,25.1c0-0.5,0-1,0.1-1.5c0.6,0.1,1.2,0.2,1.8,0.2
		c7.9,0,12.6-5.2,12.6-8.6c0-3.4-2.4-4.5-4.6-4.5c-5.9,0-9.6,5.2-10.8,10.1c-0.9-0.7-1.5-1.7-1.7-2.8c2.9-4.6,7.6-8.7,12.6-8.7
		c3,0,5.4,2.2,5.4,5.2c0,5.9-6.2,11.7-12.5,11.7c-1,0-1.9-0.1-2.8-0.2C18.5,25.7,18.5,25.4,18.5,25.1z M18.9,21.6
		c1.3-5.2,5.2-9.1,9.5-9.1c2.3,0,3.2,1.1,3.2,2.4c0,3.1-5.1,7.2-10.1,7.2C20.5,22.1,19.7,21.9,18.9,21.6z M17.2,23.1
		c0,0.4,0,0.7,0,1.1c0,0.5,0,1.1,0,1.6c-1.7-0.5-3-1.3-4-2.3c0.3-1.1,0.8-2.3,1.4-3.4C15.2,21.5,16.1,22.5,17.2,23.1z"/>
	<g>
		<path class="st1" d="M79.5,18c-0.7-0.4-1.6-0.7-2.6-0.7c-1.2,0-2.2,0.3-3.1,1c-0.5,0.4-0.9,0.8-1.3,1.3c-0.3-0.5-0.6-1-1.1-1.3
			c-0.8-0.6-1.8-1-2.9-1c-1,0-1.9,0.2-2.6,0.7c-0.4,0.3-0.8,0.6-1.2,1.1v-1.6h-3.4v13.9h3.5v-7c0-0.8,0.1-1.5,0.3-2
			c0.2-0.5,0.5-0.9,0.9-1.2c0.4-0.3,0.9-0.4,1.4-0.4c0.8,0,1.3,0.3,1.7,0.8c0.4,0.5,0.6,1.4,0.6,2.5v7.3h3.5v-7c0-0.8,0.1-1.5,0.3-2
			c0.2-0.5,0.5-0.9,0.9-1.2c0.4-0.3,0.9-0.4,1.4-0.4c0.7,0,1.3,0.3,1.7,0.8c0.4,0.5,0.6,1.4,0.6,2.5v7.3h3.5v-7.9
			c0-1.4-0.2-2.6-0.6-3.5C80.8,19.1,80.2,18.5,79.5,18z"/>
		<path class="st1" d="M87.6,11.8c-0.4-0.4-0.9-0.6-1.6-0.6c-0.7,0-1.2,0.2-1.6,0.6c-0.4,0.4-0.6,1-0.6,1.6c0,0.6,0.2,1.2,0.6,1.6
			c0.4,0.4,0.9,0.6,1.6,0.6c0.7,0,1.2-0.2,1.6-0.7c0.4-0.4,0.6-1,0.6-1.7C88.2,12.7,88,12.2,87.6,11.8z"/>
		<rect x="84.2" y="17.6" class="st1" width="3.5" height="13.9"/>
		<path class="st1" d="M100.2,18c-0.8-0.4-1.6-0.7-2.6-0.7c-1,0-2,0.2-2.8,0.7c-0.5,0.3-0.9,0.7-1.2,1.1v-1.7h-3.4v13.9h3.5v-6.9
			c0-0.9,0.1-1.6,0.4-2.1c0.2-0.5,0.6-0.9,1-1.2c0.4-0.3,0.9-0.4,1.5-0.4c0.8,0,1.4,0.3,1.8,0.8c0.4,0.5,0.6,1.4,0.6,2.5v7.3h3.5
			v-7.9c0-1.4-0.2-2.6-0.7-3.5C101.5,19.1,100.9,18.5,100.2,18z"/>
		<path class="st1" d="M114.2,19c-0.3-0.4-0.6-0.6-0.9-0.9c-0.8-0.5-1.7-0.8-2.7-0.8c-1.1,0-2.2,0.3-3.1,0.9
			c-0.9,0.6-1.6,1.4-2.2,2.5c-0.5,1.1-0.8,2.3-0.8,3.8c0,1.4,0.3,2.7,0.8,3.8c0.5,1.1,1.2,1.9,2.2,2.5c0.9,0.6,2,0.9,3.1,0.9
			c1.1,0,2-0.3,2.7-0.8c0.4-0.3,0.7-0.6,1.1-1v1.6h3.4V12.3h-3.5L114.2,19L114.2,19z M113.9,26.6c-0.3,0.6-0.7,1-1.1,1.3
			c-0.5,0.3-1,0.4-1.6,0.4c-0.6,0-1.1-0.2-1.6-0.4c-0.5-0.3-0.8-0.7-1.1-1.3c-0.3-0.6-0.4-1.3-0.4-2.1c0-0.8,0.1-1.5,0.4-2.1
			c0.3-0.6,0.7-1,1.1-1.3c0.5-0.3,1-0.4,1.6-0.4c0.6,0,1.1,0.2,1.6,0.4c0.5,0.3,0.8,0.7,1.1,1.3c0.3,0.6,0.4,1.3,0.4,2.1
			C114.3,25.3,114.1,26,113.9,26.6z"/>
		<path class="st1" d="M125.6,29.4c-0.2,0.1-0.4,0.1-0.6,0.1c-0.6,0-1.1-0.2-1.4-0.6c-0.3-0.4-0.5-1-0.5-1.7V12.3h-2.2v15.1
			c0,1.3,0.3,2.3,0.9,3.1c0.6,0.7,1.5,1.1,2.7,1.1c0.3,0,0.5,0,0.8-0.1c0.3-0.1,0.5-0.1,0.8-0.2l-0.1-2
			C125.9,29.3,125.7,29.4,125.6,29.4z"/>
		<path class="st1" d="M136.4,24.1c0,1-0.2,1.8-0.5,2.5c-0.3,0.7-0.7,1.2-1.3,1.5c-0.6,0.3-1.2,0.5-2,0.5c-1,0-1.8-0.3-2.4-1
			s-0.8-1.7-0.8-3v-6.9h-2.2V25c0,1.3,0.2,2.4,0.6,3.3s1,1.5,1.8,2c0.8,0.4,1.7,0.6,2.7,0.6c1,0,1.9-0.2,2.6-0.7
			c0.5-0.3,1-0.8,1.3-1.3v1c0,1.5-0.3,2.7-0.9,3.4c-0.6,0.7-1.6,1.1-2.9,1.1c-0.8,0-1.6-0.2-2.4-0.5c-0.7-0.3-1.4-0.7-1.9-1.3
			l-1.1,1.9c0.6,0.7,1.5,1.2,2.4,1.5c1,0.4,2,0.5,3,0.5c1.9,0,3.4-0.6,4.4-1.7c1-1.1,1.5-2.9,1.5-5.3V17.8h-2.2L136.4,24.1
			L136.4,24.1z"/>
		<path class="st1" d="M146,29.5c-0.6,0-1.1-0.2-1.4-0.6c-0.3-0.4-0.5-1-0.5-1.7v-7.4h3.4v-2h-3.4v-3h-2.2v12.5c0,1.4,0.3,2.4,1,3.2
			c0.7,0.7,1.6,1.1,2.8,1.1c0.5,0,1-0.1,1.4-0.2c0.5-0.2,0.9-0.4,1.2-0.7l-0.7-1.8C147.2,29.3,146.7,29.5,146,29.5z"/>
		<path class="st1" d="M151.5,11.9c-0.4,0-0.8,0.2-1.1,0.5c-0.3,0.3-0.4,0.7-0.4,1.2c0,0.4,0.1,0.8,0.4,1.1c0.3,0.3,0.6,0.5,1.1,0.5
			c0.4,0,0.8-0.2,1.1-0.5c0.3-0.3,0.4-0.7,0.4-1.2c0-0.4-0.1-0.8-0.4-1.1C152.3,12.1,151.9,11.9,151.5,11.9z"/>
		<rect x="150.4" y="17.8" class="st1" width="2.2" height="13.7"/>
		<path class="st1" d="M159.3,20.4c0.6-0.4,1.3-0.6,2.1-0.6c0.6,0,1.3,0.2,1.8,0.5c0.6,0.3,1,0.8,1.4,1.5l1.6-1.2
			c-0.5-1-1.1-1.7-2-2.2c-0.9-0.5-1.8-0.7-2.9-0.7c-1.2,0-2.3,0.3-3.3,0.9c-1,0.6-1.7,1.4-2.2,2.5c-0.5,1-0.8,2.3-0.8,3.6
			s0.3,2.6,0.8,3.6c0.5,1,1.3,1.9,2.2,2.5c1,0.6,2,0.9,3.3,0.9c1.1,0,2.1-0.3,2.9-0.8c0.9-0.5,1.5-1.2,2-2.2l-1.6-1.2
			c-0.4,0.7-0.9,1.2-1.4,1.5c-0.6,0.3-1.2,0.5-1.8,0.5c-0.8,0-1.5-0.2-2.1-0.6c-0.6-0.4-1.1-1-1.5-1.7c-0.4-0.7-0.5-1.6-0.5-2.6
			s0.2-1.8,0.5-2.5C158.2,21.4,158.7,20.8,159.3,20.4z"/>
		<path class="st1" d="M176.5,24.6c-0.4-0.3-0.9-0.5-1.5-0.6c-0.5-0.1-1.1-0.3-1.6-0.4s-1-0.2-1.5-0.3c-0.4-0.1-0.8-0.3-1.1-0.6
			c-0.3-0.2-0.4-0.6-0.4-1.1c0-0.5,0.2-1,0.7-1.4c0.5-0.4,1.2-0.5,2.1-0.5c0.6,0,1.2,0.1,1.8,0.2c0.6,0.2,1.2,0.4,1.7,0.9l0.9-2
			c-0.5-0.4-1.2-0.7-2-0.9c-0.8-0.2-1.6-0.3-2.4-0.3c-1,0-1.9,0.2-2.7,0.5c-0.7,0.3-1.3,0.8-1.7,1.4c-0.4,0.6-0.6,1.3-0.6,2.2
			c0,0.8,0.1,1.4,0.4,1.9c0.3,0.5,0.6,0.8,1.1,1.1c0.5,0.3,0.9,0.5,1.5,0.6s1.1,0.3,1.6,0.4c0.5,0.1,1,0.2,1.5,0.3
			c0.4,0.1,0.8,0.3,1.1,0.5c0.3,0.2,0.4,0.6,0.4,1c0,0.6-0.2,1-0.7,1.4s-1.2,0.5-2.2,0.5c-0.8,0-1.6-0.1-2.3-0.4
			c-0.8-0.3-1.4-0.6-1.9-1l-0.9,2c0.5,0.4,1.2,0.8,2.1,1.1c0.9,0.3,1.8,0.5,2.8,0.5c1.1,0,2-0.2,2.8-0.5c0.8-0.3,1.4-0.8,1.8-1.4
			c0.4-0.6,0.6-1.3,0.6-2.1c0-0.8-0.1-1.4-0.4-1.9C177.3,25.2,177,24.9,176.5,24.6z"/>
		<path class="st1" d="M180.8,28.1c-0.4,0-0.8,0.2-1.1,0.5c-0.3,0.3-0.4,0.7-0.4,1.2c0,0.5,0.1,0.9,0.4,1.3c0.3,0.3,0.7,0.5,1.1,0.5
			c0.4,0,0.7-0.2,1-0.5c0.3-0.3,0.4-0.7,0.4-1.3c0-0.5-0.1-0.9-0.4-1.2C181.6,28.3,181.2,28.1,180.8,28.1z"/>
		<path class="st1" d="M193,20c-0.4-0.6-0.9-1.1-1.4-1.4c-0.8-0.5-1.7-0.8-2.7-0.8c-1.1,0-2.2,0.3-3.1,0.9c-0.9,0.6-1.6,1.4-2.1,2.4
			c-0.5,1-0.8,2.2-0.8,3.6c0,1.4,0.3,2.6,0.8,3.6c0.5,1,1.2,1.8,2.1,2.4c0.9,0.6,1.9,0.9,3.1,0.9c1,0,1.9-0.3,2.7-0.8
			c0.6-0.4,1.1-0.9,1.5-1.5v2.1h2V18H193V20z M192.5,27.2c-0.3,0.7-0.8,1.3-1.4,1.7c-0.6,0.4-1.3,0.6-2,0.6c-0.8,0-1.4-0.2-2-0.6
			c-0.6-0.4-1.1-0.9-1.4-1.7c-0.4-0.7-0.5-1.6-0.5-2.5c0-1,0.2-1.8,0.5-2.5c0.4-0.7,0.8-1.2,1.4-1.6c0.6-0.4,1.3-0.6,2-0.6
			c0.7,0,1.4,0.2,2,0.6c0.6,0.4,1.1,0.9,1.4,1.6c0.3,0.7,0.5,1.5,0.5,2.5C193,25.7,192.9,26.5,192.5,27.2z"/>
		<rect x="198.2" y="18" class="st1" width="2.1" height="13.4"/>
		<path class="st1" d="M199.3,15.4c0.4,0,0.8-0.2,1-0.5c0.3-0.3,0.4-0.7,0.4-1.2c0-0.4-0.1-0.8-0.4-1.1s-0.6-0.4-1-0.4
			c-0.4,0-0.8,0.2-1,0.5c-0.3,0.3-0.4,0.7-0.4,1.1c0,0.4,0.1,0.8,0.4,1.1C198.5,15.3,198.9,15.4,199.3,15.4z"/>
	</g>
</g>
</svg>
