<?xml version="1.0" encoding="utf-8"?>
<!-- Generator: Adobe Illustrator 26.4.1, SVG Export Plug-In . SVG Version: 6.00 Build 0)  -->
<svg version="1.1" id="Layer_1" xmlns="http://www.w3.org/2000/svg" xmlns:xlink="http://www.w3.org/1999/xlink" x="0px" y="0px"
	 viewBox="0 0 773.9 167.7" style="enable-background:new 0 0 773.9 167.7;" xml:space="preserve">
<style type="text/css">
	.st0{fill:#01B4D2;}
	.st1{fill:#0A0045;}
</style>
<g>
	<path class="st0" d="M161.6,89.1c-6.5-8.5-9.1-10.6-7.5-16.6c8.8-33.6-21.4-57.4-57.7-57.4c-35,0-70.3,21.9-70.3,51.8
		c0,7.3,2.5,13.3,6.7,18c-0.7,3-1,5.8-1,8.3c0,14.9,7.3,24.8,29.5,24.8c1.1,0,2.2,0,3.3-0.1c3.6,3.8,8.3,6.6,14.4,7.9l0.5-3
		c-4-1.3-7.2-3.1-9.9-5.3c38-4.6,64.1-39.5,64.1-59c0-22.5-13.3-35.4-39.3-35.4c-21.6,0-51.6,13.7-51.6,37.1c0,1.2,0.1,2.4,0.2,3.5
		c-3.5,4.8-6.1,9.4-7.9,13.9c-2.3-3.8-3.4-8-3.4-12.3c0-24.3,32.4-45.6,64.6-45.6c35.1,0,57.9,27,53.3,48.2
		c-1.6,7.6-0.8,12.6,5,21.6c5.3,8.1,5.9,9.9,1.6,15c-4.4,5.3-4.1,8.3-2.2,19.7c1.5,9-2.6,11.1-8.6,11.1c-6.6,0-14.4-2-19.9-2
		c-9.8-0.1-18.8,3.4-20.6,18.9l2.9,0.5c2.1-6.5,3.9-18.3,29.2-12.9c19.2,4.1,23.4-2.9,23.4-12.4c0-2.9-0.4-4.9-0.9-7
		c-2.1-8.6-1.8-10.2,2.6-14.5C167.6,100.7,166.8,96,161.6,89.1z M37.5,94.6c0-1.6,0.2-3.3,0.6-5.1c4.8,3.4,10.6,5.7,17,6.9
		c1,6.3,2.9,12.3,6.2,17.3C45.9,113.2,37.5,104.8,37.5,94.6z M93.1,29.3c23,0,34.6,10.9,34.6,26.3c0,28.4-34.9,56-62,58
		c-3.5-4.6-5.3-10.2-6.1-16.6c2.7,0.3,5.5,0.4,8.4,0.2c25.4-1,53-17.3,53-45.1c0-17.5-27.2-29.1-54.4-10.4
		c-6.8,4.6-12.4,9.4-17,14.3C53,42.1,69.9,29.3,93.1,29.3z M59.2,88.4c0-1.7,0.1-3.3,0.3-4.9c2.1,0.5,4.3,0.7,6.6,0.7
		c29.1,0,46.5-16.9,46.5-27.8c0-11.1-8.9-14.6-16.9-14.6c-21.8,0-35.5,16.8-39.9,32.8c-3.3-2.3-5.4-5.5-6.4-9
		c10.9-14.9,28-28.2,46.4-28.2c11,0,19.9,7,19.9,16.9c0,19.1-22.9,38-46.3,38c-3.7,0-7.1-0.3-10.2-0.7
		C59.2,90.5,59.2,89.5,59.2,88.4z M60.7,77.1c4.6-16.9,19.2-29.5,35-29.5c8.6,0,11.8,3.5,11.8,7.6c0,10.1-18.9,23.4-37.3,23.4
		C66.6,78.6,63.4,78,60.7,77.1z M54.4,81.8c-0.1,1.2-0.2,2.4-0.2,3.6c0,1.7,0.1,3.5,0.2,5.2c-6.2-1.6-11-4.1-14.6-7.3
		c1.3-3.6,3.1-7.3,5.3-11.1C47.1,76.7,50.3,79.9,54.4,81.8z"/>
	<g>
		<path class="st1" d="M271.5,62.7c-2.9-1.5-6.3-2.3-10.1-2.3c-4.6,0-8.7,1.1-12.2,3.3c-2,1.3-3.7,2.8-5,4.5
			c-1.1-1.8-2.5-3.3-4.3-4.5c-3.3-2.2-7.2-3.3-11.5-3.3c-3.9,0-7.3,0.8-10.4,2.5c-1.8,1-3.3,2.2-4.5,3.7v-5.5h-13.2v47.8h13.9V85
			c0-2.9,0.4-5.2,1.3-7.1c0.9-1.8,2.1-3.2,3.7-4.1c1.6-0.9,3.4-1.4,5.4-1.4c3,0,5.2,0.9,6.8,2.8c1.6,1.8,2.4,4.7,2.4,8.5v25.2h13.9
			V85c0-2.9,0.4-5.2,1.3-7.1c0.9-1.8,2.1-3.2,3.7-4.1c1.6-0.9,3.4-1.4,5.5-1.4c2.8,0,5,0.9,6.6,2.8c1.6,1.8,2.4,4.7,2.4,8.5v25.2
			h13.9V81.6c0-4.8-0.8-8.8-2.5-12C276.8,66.5,274.5,64.2,271.5,62.7z"/>
		<path class="st1" d="M303.4,41.1c-1.6-1.4-3.7-2.1-6.3-2.1c-2.6,0-4.7,0.7-6.3,2.2s-2.4,3.3-2.4,5.5s0.8,4,2.4,5.5
			s3.7,2.2,6.3,2.2c2.6,0,4.7-0.8,6.3-2.3c1.6-1.5,2.4-3.4,2.4-5.7C305.8,44.3,305,42.5,303.4,41.1z"/>
		<rect x="290.2" y="61.1" class="st1" width="13.9" height="47.8"/>
		<path class="st1" d="M352.9,62.7c-3-1.5-6.4-2.3-10.2-2.3c-4.1,0-7.7,0.9-10.9,2.6c-1.9,1-3.5,2.3-4.9,3.8v-5.7h-13.2V109h13.9
			V85.3c0-3,0.5-5.5,1.5-7.3s2.3-3.2,4.1-4.2c1.8-1,3.7-1.4,5.9-1.4c3.1,0,5.5,0.9,7.1,2.8c1.7,1.8,2.5,4.7,2.5,8.5V109h13.9V81.6
			c0-4.8-0.9-8.8-2.6-12C358.3,66.5,355.9,64.2,352.9,62.7z"/>
		<path class="st1" d="M408.1,66.1c-1.1-1.2-2.3-2.2-3.7-3c-3-1.8-6.5-2.7-10.6-2.7c-4.5,0-8.6,1-12.2,3.1s-6.5,4.9-8.5,8.6
			c-2.1,3.7-3.1,8-3.1,13c0,5,1,9.3,3.1,13s4.9,6.5,8.5,8.6c3.6,2,7.7,3.1,12.2,3.1c4.2,0,7.8-0.9,10.8-2.6c1.6-0.9,2.9-2.1,4.1-3.6
			v5.5h13.2V43H408L408.1,66.1L408.1,66.1z M406.7,92.1c-1.1,2-2.6,3.5-4.4,4.6c-1.8,1-3.9,1.5-6.2,1.5c-2.2,0-4.3-0.5-6.1-1.5
			c-1.8-1-3.3-2.6-4.4-4.6c-1.1-2-1.6-4.4-1.6-7.1c0-2.8,0.5-5.2,1.6-7.1c1.1-2,2.6-3.5,4.4-4.5c1.8-1,3.9-1.5,6.1-1.5
			c2.3,0,4.4,0.5,6.2,1.5c1.8,1,3.3,2.5,4.4,4.5c1.1,2,1.6,4.3,1.6,7.1C408.3,87.8,407.8,90.1,406.7,92.1z"/>
		<path class="st1" d="M452.7,102c-0.7,0.2-1.5,0.3-2.3,0.3c-2.4,0-4.2-0.7-5.5-2s-1.8-3.3-1.8-5.9V43h-8.5v52.1
			c0,4.5,1.2,8,3.7,10.6s6,3.8,10.6,3.8c1,0,2-0.1,3.1-0.3s2.1-0.4,3-0.8l-0.4-7C454,101.6,453.4,101.8,452.7,102z"/>
		<path class="st1" d="M495.3,83.7c0,3.4-0.6,6.2-1.8,8.6s-2.9,4.1-5.1,5.3s-4.8,1.8-7.7,1.8c-4,0-7.2-1.2-9.4-3.5
			s-3.3-5.7-3.3-10.3V61.9h-8.5v24.7c0,4.6,0.8,8.4,2.5,11.4s4,5.3,7.1,6.8c3,1.5,6.6,2.2,10.6,2.2c3.8,0,7.3-0.9,10.4-2.6
			c2.1-1.2,3.8-2.6,5.2-4.4v3.5c0,5.3-1.2,9.3-3.6,11.9c-2.4,2.6-6.2,3.9-11.4,3.9c-3.3,0-6.3-0.5-9.3-1.6c-2.9-1.1-5.4-2.5-7.5-4.4
			l-4.2,6.6c2.5,2.2,5.7,4,9.5,5.2c3.8,1.2,7.8,1.8,11.9,1.8c7.6,0,13.3-2,17.2-5.9s5.9-10,5.9-18.3V61.8h-8.5L495.3,83.7
			L495.3,83.7z"/>
		<path class="st1" d="M533,102.3c-2.4,0-4.2-0.7-5.5-2s-1.9-3.3-1.9-5.9V68.9h13.5v-7h-13.5V51.6h-8.5v43.2c0,4.7,1.3,8.4,3.9,10.9
			c2.6,2.5,6.3,3.8,11,3.8c1.9,0,3.8-0.3,5.6-0.8c1.8-0.5,3.4-1.4,4.7-2.5l-2.7-6.1C537.9,101.5,535.7,102.3,533,102.3z"/>
		<path class="st1" d="M554.7,41.7c-1.7,0-3,0.5-4.1,1.6s-1.6,2.4-1.6,4c0,1.5,0.5,2.8,1.6,3.9s2.5,1.6,4.1,1.6
			c1.7,0,3.1-0.5,4.2-1.6c1.1-1.1,1.6-2.4,1.6-4c0-1.5-0.5-2.8-1.6-3.9C557.8,42.2,556.4,41.7,554.7,41.7z"/>
		<rect x="550.5" y="61.9" class="st1" width="8.5" height="47.1"/>
		<path class="st1" d="M585.4,70.9c2.4-1.4,5.2-2,8.3-2c2.5,0,4.9,0.5,7.2,1.6c2.2,1.1,4.1,2.8,5.6,5.1l6.5-4.2
			c-1.8-3.3-4.4-5.8-7.8-7.5c-3.3-1.7-7.2-2.5-11.4-2.5c-4.8,0-9.1,1-12.8,3.1s-6.7,4.9-8.8,8.5s-3.2,7.8-3.2,12.4s1.1,8.8,3.2,12.4
			s5.1,6.5,8.8,8.5c3.8,2.1,8,3.1,12.8,3.1c4.3,0,8.1-0.9,11.4-2.6c3.3-1.8,5.9-4.2,7.8-7.5l-6.5-4.1c-1.5,2.3-3.4,4-5.6,5.1
			c-2.2,1.1-4.6,1.6-7.2,1.6c-3.1,0-5.8-0.7-8.3-2s-4.3-3.3-5.8-5.8c-1.4-2.5-2.1-5.4-2.1-8.8s0.7-6.3,2.1-8.8
			C581.1,74.2,583,72.3,585.4,70.9z"/>
		<path class="st1" d="M653,85.4c-1.8-0.9-3.7-1.6-5.8-2.1c-2.1-0.5-4.3-0.9-6.4-1.2s-4.1-0.7-5.8-1.2c-1.8-0.5-3.2-1.1-4.3-2
			c-1.1-0.9-1.6-2.1-1.6-3.7c0-1.9,0.9-3.5,2.8-4.7c1.8-1.2,4.6-1.8,8.3-1.8c2.3,0,4.6,0.3,6.9,0.8c2.3,0.5,4.5,1.5,6.7,2.9l3.6-6.8
			c-2-1.4-4.6-2.4-7.8-3.2c-3.2-0.7-6.3-1.1-9.4-1.1c-4,0-7.5,0.6-10.4,1.7c-2.9,1.2-5.2,2.8-6.8,4.9c-1.6,2.1-2.4,4.6-2.4,7.5
			c0,2.7,0.5,4.9,1.6,6.5c1.1,1.6,2.5,2.9,4.3,3.8c1.8,0.9,3.7,1.6,5.9,2.1s4.3,0.9,6.4,1.2c2.1,0.3,4.1,0.7,5.8,1.1s3.2,1,4.2,1.9
			c1.1,0.8,1.6,2,1.6,3.5c0,2-0.9,3.6-2.6,4.7s-4.6,1.7-8.6,1.7c-3.1,0-6.1-0.5-9.1-1.4s-5.5-2.1-7.5-3.5l-3.5,6.8
			c2,1.5,4.8,2.8,8.3,3.9c3.5,1.1,7.2,1.6,11.2,1.6c4.2,0,7.8-0.6,10.8-1.7c3-1.2,5.4-2.8,7-4.8c1.7-2.1,2.5-4.5,2.5-7.4
			c0-2.7-0.5-4.8-1.6-6.4C656.2,87.5,654.7,86.3,653,85.4z"/>
		<path class="st1" d="M670,97.5c-1.6,0-3,0.5-4.2,1.7s-1.8,2.5-1.8,4.3c0,1.8,0.6,3.2,1.8,4.3s2.6,1.7,4.2,1.7
			c1.6,0,2.9-0.6,4.1-1.7s1.7-2.6,1.7-4.3s-0.6-3.2-1.7-4.3C672.9,98,671.5,97.5,670,97.5z"/>
		<path class="st1" d="M717.9,69.6c-1.6-2-3.4-3.7-5.6-4.9c-3.2-1.8-6.7-2.6-10.6-2.6c-4.5,0-8.5,1-12,3c-3.5,2-6.3,4.7-8.3,8.3
			c-2,3.5-3.1,7.7-3.1,12.4s1,8.9,3.1,12.4s4.8,6.3,8.3,8.3c3.5,2,7.5,3,12,3c4,0,7.6-0.9,10.8-2.7c2.3-1.3,4.2-3,5.8-5.2v7.3h8
			V62.6h-8.4V69.6z M715.9,94.4c-1.4,2.5-3.2,4.4-5.6,5.7c-2.4,1.3-5,2-7.9,2c-3,0-5.6-0.7-8-2s-4.2-3.2-5.6-5.7
			c-1.4-2.5-2.1-5.3-2.1-8.6c0-3.3,0.7-6.2,2.1-8.6c1.4-2.4,3.3-4.3,5.6-5.6c2.3-1.3,5-2,8-2c2.9,0,5.5,0.7,7.9,2s4.2,3.2,5.6,5.6
			c1.4,2.4,2,5.3,2,8.6C718,89,717.3,91.9,715.9,94.4z"/>
		<rect x="738.3" y="62.6" class="st1" width="8.4" height="46.3"/>
		<path class="st1" d="M742.5,53.7c1.7,0,3.1-0.5,4.1-1.6s1.6-2.4,1.6-4c0-1.5-0.5-2.8-1.6-3.8s-2.4-1.5-4.1-1.5
			c-1.6,0-3,0.5-4.1,1.6c-1.1,1-1.6,2.4-1.6,3.9c0,1.5,0.5,2.8,1.6,3.9C739.5,53.2,740.8,53.7,742.5,53.7z"/>
	</g>
</g>
</svg>
