<?xml version="1.0" encoding="utf-8"?>
<!-- Generator: Adobe Illustrator 27.9.0, SVG Export Plug-In . SVG Version: 6.00 Build 0)  -->
<svg version="1.1" id="Layer_1" xmlns="http://www.w3.org/2000/svg" xmlns:xlink="http://www.w3.org/1999/xlink" x="0px" y="0px"
	 viewBox="0 0 1080 1080" style="enable-background:new 0 0 1080 1080;" xml:space="preserve">
<style type="text/css">
	.st0{fill:#01B4D2;}
	.st1{fill:#0A0045;}
</style>
<g>
	<path class="st0" d="M302.66,544.22c-6.45-8.52-9.07-10.61-7.51-16.57c8.77-33.56-21.35-57.4-57.7-57.4
		c-34.97,0-70.27,21.91-70.27,51.76c0,7.26,2.52,13.29,6.73,18.03c-0.69,2.98-1.02,5.78-1.02,8.34c0,14.91,7.28,24.84,29.48,24.84
		c1.12,0,2.22-0.04,3.32-0.09c3.62,3.78,8.32,6.58,14.35,7.88l0.47-3.03c-4-1.31-7.25-3.09-9.88-5.26
		c37.96-4.56,64.13-39.55,64.13-58.98c0-22.48-13.29-35.44-39.3-35.44c-21.65,0-51.55,13.74-51.55,37.07c0,1.24,0.06,2.42,0.17,3.55
		c-3.48,4.75-6.05,9.44-7.85,13.91c-2.27-3.76-3.35-7.97-3.35-12.3c0-24.28,32.4-45.64,64.59-45.64c35.13,0,57.91,26.99,53.32,48.25
		c-1.65,7.64-0.78,12.63,5.01,21.56c5.28,8.14,5.87,9.93,1.58,15.05c-4.44,5.3-4.1,8.34-2.19,19.74c1.51,9.01-2.64,11.07-8.62,11.07
		c-6.63,0-14.37-1.96-19.89-2.01c-9.83-0.09-18.83,3.44-20.63,18.92l2.85,0.54c2.1-6.51,3.9-18.35,29.21-12.92
		c19.25,4.13,23.38-2.89,23.38-12.42c0-2.86-0.35-4.94-0.86-6.98c-2.15-8.56-1.79-10.23,2.6-14.5
		C308.67,555.85,307.9,551.14,302.66,544.22z M178.51,549.71c0-1.58,0.2-3.3,0.55-5.09c4.75,3.38,10.62,5.7,17.02,6.91
		c0.99,6.32,2.95,12.32,6.19,17.29C186.93,568.29,178.51,559.93,178.51,549.71z M234.19,484.45c23,0,34.58,10.93,34.58,26.33
		c0,28.43-34.86,56.03-61.99,57.97c-3.51-4.57-5.3-10.23-6.07-16.56c2.73,0.28,5.53,0.36,8.36,0.25
		c25.38-1.01,52.95-17.35,52.95-45.12c0-17.53-27.16-29.15-54.44-10.44c-6.79,4.58-12.42,9.42-17.04,14.31
		C194.02,497.19,210.94,484.45,234.19,484.45z M200.24,543.56c0-1.65,0.11-3.27,0.29-4.87c2.09,0.46,4.3,0.68,6.59,0.68
		c29.14,0,46.49-16.9,46.49-27.84c0-11.08-8.91-14.58-16.9-14.58c-21.76,0-35.47,16.83-39.89,32.76c-3.31-2.33-5.43-5.5-6.38-8.99
		c10.85-14.89,27.96-28.23,46.45-28.23c10.96,0,19.91,6.99,19.91,16.91c0,19.07-22.91,38.02-46.31,38.02
		c-3.69,0-7.08-0.26-10.19-0.74C200.26,545.65,200.24,544.61,200.24,543.56z M201.78,532.23c4.64-16.92,19.22-29.53,34.96-29.53
		c8.64,0,11.8,3.47,11.8,7.65c0,10.12-18.87,23.38-37.33,23.38C207.62,533.72,204.48,533.18,201.78,532.23z M195.44,536.96
		c-0.12,1.21-0.18,2.4-0.18,3.56c0,1.73,0.06,3.46,0.18,5.19c-6.2-1.57-11.03-4.13-14.61-7.34c1.28-3.56,3.07-7.31,5.3-11.08
		C188.12,531.88,191.39,535.03,195.44,536.96z"/>
	<g>
		<path class="st1" d="M412.6,517.84c-2.93-1.51-6.29-2.26-10.08-2.26c-4.62,0-8.68,1.11-12.17,3.33c-1.99,1.26-3.66,2.77-5.03,4.5
			c-1.12-1.82-2.55-3.33-4.3-4.5c-3.32-2.22-7.17-3.33-11.55-3.33c-3.85,0-7.31,0.84-10.39,2.53c-1.75,0.96-3.26,2.18-4.53,3.65
			v-5.47h-13.23v47.79h13.86v-23.98c0-2.9,0.44-5.25,1.33-7.06c0.89-1.81,2.13-3.17,3.73-4.09c1.6-0.92,3.4-1.38,5.42-1.38
			c2.96,0,5.23,0.92,6.79,2.75c1.57,1.84,2.35,4.68,2.35,8.53v25.23h13.86v-23.98c0-2.9,0.43-5.25,1.29-7.06
			c0.86-1.81,2.09-3.17,3.69-4.09c1.6-0.92,3.43-1.38,5.51-1.38c2.84,0,5.05,0.92,6.62,2.75c1.57,1.84,2.35,4.68,2.35,8.53v25.23
			h13.86v-27.36c0-4.85-0.83-8.84-2.49-11.95C417.82,521.66,415.53,519.35,412.6,517.84z"/>
		<path class="st1" d="M444.46,496.25c-1.63-1.39-3.72-2.09-6.26-2.09c-2.61,0-4.71,0.74-6.31,2.22c-1.6,1.48-2.4,3.32-2.4,5.51
			c0,2.19,0.8,4.03,2.4,5.51c1.6,1.48,3.7,2.22,6.31,2.22c2.6,0,4.71-0.76,6.31-2.26c1.6-1.51,2.4-3.42,2.4-5.73
			C446.9,499.44,446.08,497.65,444.46,496.25z"/>
		<rect x="431.27" y="516.28" class="st1" width="13.86" height="47.79"/>
		<path class="st1" d="M493.96,517.84c-2.99-1.51-6.38-2.26-10.17-2.26c-4.09,0-7.73,0.86-10.92,2.58
			c-1.89,1.01-3.51,2.29-4.89,3.83v-5.69h-13.23v47.79h13.86v-23.63c0-3.02,0.49-5.45,1.47-7.28c0.98-1.83,2.34-3.23,4.09-4.17
			c1.75-0.95,3.72-1.42,5.91-1.42c3.08,0,5.46,0.92,7.15,2.75c1.69,1.84,2.53,4.68,2.53,8.53v25.23h13.86v-27.36
			c0-4.85-0.86-8.84-2.58-11.95C499.31,521.66,496.95,519.35,493.96,517.84z"/>
		<path class="st1" d="M549.11,521.28c-1.1-1.21-2.34-2.23-3.73-3.05c-3.02-1.78-6.54-2.66-10.57-2.66c-4.5,0-8.56,1.02-12.17,3.06
			c-3.61,2.04-6.45,4.9-8.53,8.57c-2.07,3.67-3.11,7.99-3.11,12.97c0,4.97,1.04,9.3,3.11,12.97c2.07,3.67,4.91,6.53,8.53,8.57
			c3.61,2.04,7.67,3.06,12.17,3.06c4.2,0,7.8-0.87,10.79-2.62c1.57-0.92,2.94-2.11,4.13-3.56v5.47h13.23v-65.9h-13.86V521.28z
			 M547.73,547.28c-1.1,2.01-2.56,3.54-4.4,4.57c-1.84,1.04-3.91,1.55-6.22,1.55c-2.25,0-4.29-0.52-6.13-1.55
			c-1.84-1.04-3.3-2.56-4.4-4.57c-1.1-2.01-1.64-4.38-1.64-7.11c0-2.78,0.55-5.15,1.64-7.11c1.1-1.95,2.56-3.45,4.4-4.49
			c1.83-1.03,3.88-1.55,6.13-1.55c2.31,0,4.38,0.52,6.22,1.55c1.83,1.04,3.3,2.53,4.4,4.49c1.09,1.95,1.64,4.32,1.64,7.11
			C549.38,542.9,548.83,545.27,547.73,547.28z"/>
		<path class="st1" d="M593.73,557.14c-0.74,0.18-1.52,0.27-2.35,0.27c-2.43,0-4.25-0.68-5.46-2.04c-1.21-1.36-1.82-3.32-1.82-5.86
			v-51.34h-8.53v52.05c0,4.5,1.24,8.02,3.73,10.57c2.49,2.55,6.01,3.82,10.57,3.82c1.01,0,2.04-0.09,3.11-0.27
			c1.07-0.18,2.07-0.44,3.02-0.8l-0.44-7.02C595.07,556.76,594.47,556.96,593.73,557.14z"/>
		<path class="st1" d="M636.39,538.84c0,3.38-0.59,6.23-1.78,8.57c-1.19,2.34-2.87,4.1-5.06,5.29c-2.19,1.19-4.77,1.78-7.73,1.78
			c-4.03,0-7.15-1.15-9.37-3.46c-2.22-2.31-3.33-5.74-3.33-10.3v-23.72h-8.53v24.69c0,4.56,0.84,8.36,2.53,11.41
			c1.69,3.05,4.05,5.32,7.11,6.79c3.05,1.48,6.59,2.22,10.61,2.22c3.85,0,7.31-0.86,10.39-2.58c2.07-1.15,3.78-2.63,5.15-4.43v3.45
			c0,5.33-1.2,9.28-3.6,11.86c-2.4,2.58-6.2,3.86-11.41,3.86c-3.26,0-6.35-0.53-9.28-1.6c-2.93-1.07-5.43-2.55-7.51-4.44l-4.17,6.57
			c2.54,2.25,5.73,3.98,9.55,5.2c3.82,1.21,7.77,1.82,11.86,1.82c7.58,0,13.32-1.95,17.23-5.86c3.91-3.91,5.86-10.01,5.86-18.3
			v-40.68h-8.53V538.84z"/>
		<path class="st1" d="M674.05,557.41c-2.37,0-4.19-0.68-5.46-2.04c-1.27-1.36-1.91-3.32-1.91-5.86v-25.49h13.5v-7.02h-13.5v-10.3
			h-8.53v43.17c0,4.74,1.3,8.38,3.91,10.92c2.6,2.55,6.28,3.82,11.01,3.82c1.89,0,3.76-0.27,5.6-0.8c1.83-0.53,3.4-1.36,4.71-2.49
			l-2.67-6.13C678.93,556.67,676.71,557.41,674.05,557.41z"/>
		<path class="st1" d="M695.8,496.83c-1.66,0-3.03,0.53-4.13,1.6c-1.1,1.07-1.64,2.4-1.64,4c0,1.54,0.55,2.84,1.64,3.91
			c1.09,1.07,2.47,1.6,4.13,1.6c1.72,0,3.11-0.55,4.17-1.64c1.07-1.1,1.6-2.44,1.6-4.04c0-1.54-0.55-2.83-1.64-3.86
			C698.83,497.35,697.45,496.83,695.8,496.83z"/>
		<rect x="691.53" y="516.99" class="st1" width="8.53" height="47.08"/>
		<path class="st1" d="M726.46,526.05c2.43-1.36,5.18-2.04,8.26-2.04c2.54,0,4.93,0.55,7.15,1.64c2.22,1.1,4.1,2.8,5.64,5.11
			l6.48-4.17c-1.84-3.32-4.43-5.82-7.77-7.51c-3.35-1.69-7.15-2.53-11.41-2.53c-4.8,0-9.07,1.02-12.83,3.06
			c-3.76,2.04-6.71,4.87-8.84,8.48c-2.13,3.61-3.2,7.76-3.2,12.44c0,4.68,1.07,8.82,3.2,12.43c2.13,3.61,5.08,6.45,8.84,8.53
			c3.76,2.07,8.04,3.11,12.83,3.11c4.26,0,8.07-0.87,11.41-2.62c3.35-1.75,5.94-4.25,7.77-7.51l-6.48-4.09
			c-1.54,2.31-3.42,4.01-5.64,5.11c-2.22,1.1-4.61,1.64-7.15,1.64c-3.08,0-5.83-0.68-8.26-2.04c-2.43-1.36-4.35-3.29-5.77-5.77
			c-1.42-2.49-2.13-5.42-2.13-8.79s0.71-6.29,2.13-8.75C722.11,529.33,724.03,527.42,726.46,526.05z"/>
		<path class="st1" d="M794.06,540.53c-1.75-0.89-3.69-1.58-5.82-2.09c-2.13-0.5-4.26-0.92-6.39-1.24c-2.13-0.32-4.07-0.72-5.82-1.2
			c-1.75-0.47-3.17-1.14-4.26-2c-1.1-0.86-1.64-2.09-1.64-3.69c0-1.89,0.92-3.45,2.75-4.66c1.83-1.21,4.62-1.82,8.35-1.82
			c2.31,0,4.62,0.27,6.93,0.8c2.31,0.53,4.53,1.51,6.66,2.93l3.64-6.75c-2.01-1.36-4.61-2.41-7.77-3.15
			c-3.17-0.74-6.29-1.11-9.37-1.11c-4.03,0-7.51,0.58-10.44,1.73c-2.93,1.15-5.2,2.8-6.79,4.93c-1.6,2.13-2.4,4.62-2.4,7.46
			c0,2.72,0.53,4.9,1.6,6.53c1.07,1.63,2.49,2.9,4.26,3.82c1.78,0.92,3.73,1.63,5.86,2.13c2.13,0.5,4.26,0.92,6.39,1.24
			c2.13,0.33,4.07,0.7,5.82,1.11c1.75,0.41,3.15,1.04,4.22,1.87c1.07,0.83,1.6,1.98,1.6,3.46c0,2.01-0.87,3.58-2.62,4.71
			c-1.75,1.13-4.61,1.69-8.57,1.69c-3.08,0-6.1-0.47-9.06-1.42c-2.96-0.95-5.45-2.1-7.46-3.46l-3.55,6.75
			c2.01,1.54,4.78,2.84,8.31,3.91c3.52,1.07,7.24,1.6,11.15,1.6c4.2,0,7.82-0.58,10.84-1.73c3.02-1.16,5.36-2.77,7.02-4.84
			c1.66-2.07,2.49-4.53,2.49-7.37c0-2.66-0.55-4.8-1.64-6.4C797.23,542.66,795.8,541.42,794.06,540.53z"/>
		<path class="st1" d="M811.02,552.62c-1.63,0-3.03,0.55-4.2,1.66c-1.17,1.11-1.75,2.54-1.75,4.28c0,1.75,0.58,3.19,1.75,4.33
			c1.17,1.14,2.56,1.71,4.2,1.71c1.57,0,2.93-0.57,4.07-1.71c1.14-1.14,1.7-2.58,1.7-4.33c0-1.75-0.57-3.18-1.7-4.28
			C813.95,553.18,812.59,552.62,811.02,552.62z"/>
		<path class="st1" d="M858.96,524.78c-1.57-2.03-3.43-3.65-5.6-4.86c-3.15-1.75-6.68-2.62-10.58-2.62c-4.49,0-8.5,0.99-12.02,2.97
			c-3.53,1.98-6.31,4.74-8.35,8.26c-2.04,3.53-3.06,7.65-3.06,12.37c0,4.72,1.02,8.86,3.06,12.42c2.04,3.56,4.82,6.33,8.35,8.31
			c3.53,1.98,7.53,2.97,12.02,2.97c4.02,0,7.61-0.89,10.76-2.67c2.27-1.28,4.19-3.01,5.77-5.18v7.32h8.04v-46.34h-8.39V524.78z
			 M856.99,549.52c-1.37,2.48-3.23,4.39-5.6,5.73c-2.36,1.34-5,2.01-7.91,2.01c-2.97,0-5.63-0.67-7.96-2.01
			c-2.33-1.34-4.2-3.25-5.6-5.73c-1.4-2.48-2.1-5.35-2.1-8.61c0-3.32,0.7-6.19,2.1-8.61c1.4-2.42,3.26-4.3,5.6-5.64
			c2.33-1.34,4.98-2.01,7.96-2.01c2.91,0,5.55,0.67,7.91,2.01c2.36,1.34,4.23,3.22,5.6,5.64c1.37,2.42,2.05,5.29,2.05,8.61
			C859.04,544.17,858.36,547.04,856.99,549.52z"/>
		<rect x="879.32" y="517.74" class="st1" width="8.39" height="46.34"/>
		<path class="st1" d="M883.51,508.82c1.69,0,3.06-0.54,4.11-1.62c1.05-1.08,1.57-2.4,1.57-3.98c0-1.52-0.54-2.78-1.62-3.8
			c-1.08-1.02-2.43-1.53-4.07-1.53c-1.63,0-2.99,0.52-4.07,1.57c-1.08,1.05-1.62,2.36-1.62,3.93c0,1.52,0.54,2.8,1.62,3.85
			C880.53,508.29,881.88,508.82,883.51,508.82z"/>
	</g>
</g>
</svg>
