<?xml version="1.0" encoding="utf-8"?>
<!-- Generator: Adobe Illustrator 26.4.1, SVG Export Plug-In . SVG Version: 6.00 Build 0)  -->
<svg version="1.1" id="Layer_1" xmlns="http://www.w3.org/2000/svg" xmlns:xlink="http://www.w3.org/1999/xlink" x="0px" y="0px"
	 viewBox="0 0 177 24" style="enable-background:new 0 0 177 24;" xml:space="preserve">
<style type="text/css">
	.st0{fill:#01B4D2;}
	.st1{fill:#0A0045;}
</style>
<g>
	<path class="st0" d="M24.9,13c-1.1-1.5-1.6-1.8-1.3-2.9c1.5-5.8-3.7-10-10-10c-6.1,0-12.2,3.8-12.2,9c0,1.3,0.4,2.3,1.2,3.1
		c-0.1,0.5-0.2,1-0.2,1.4c0,2.6,1.3,4.3,5.1,4.3c0.2,0,0.4,0,0.6,0c0.6,0.7,1.4,1.1,2.5,1.4l0.1-0.5C10,18.6,9.4,18.3,9,17.9
		c6.6-0.8,11.1-6.9,11.1-10.2c0-3.9-2.3-6.1-6.8-6.1c-3.8,0-9,2.4-9,6.4c0,0.2,0,0.4,0,0.6C3.7,9.4,3.3,10.2,3,11
		c-0.4-0.7-0.6-1.4-0.6-2.1c0-4.2,5.6-7.9,11.2-7.9c6.1,0,10.1,4.7,9.3,8.4c-0.3,1.3-0.1,2.2,0.9,3.8c0.9,1.4,1,1.7,0.3,2.6
		c-0.8,0.9-0.7,1.4-0.4,3.4c0.3,1.6-0.5,1.9-1.5,1.9c-1.1,0-2.5-0.3-3.5-0.3c-1.7,0-3.3,0.6-3.6,3.3l0.5,0.1
		c0.4-1.1,0.7-3.2,5.1-2.2c3.3,0.7,4.1-0.5,4.1-2.2c0-0.5-0.1-0.9-0.2-1.2c-0.4-1.5-0.3-1.8,0.5-2.5C26,15,25.8,14.2,24.9,13z
		 M3.4,13.9c0-0.3,0-0.6,0.1-0.9c0.8,0.6,1.8,1,3,1.2c0.2,1.1,0.5,2.1,1.1,3C4.8,17.1,3.4,15.7,3.4,13.9z M13,2.6c4,0,6,1.9,6,4.6
		c0,4.9-6.1,9.7-10.8,10.1c-0.6-0.8-0.9-1.8-1.1-2.9c0.5,0.1,1,0.1,1.5,0c4.4-0.2,9.2-3,9.2-7.8c0-3-4.7-5.1-9.4-1.8
		c-1.2,0.8-2.2,1.6-3,2.5C6.1,4.8,9,2.6,13,2.6z M7.2,12.8c0-0.3,0-0.6,0.1-0.9c0.4,0.1,0.7,0.1,1.1,0.1c5.1,0,8.1-2.9,8.1-4.8
		c0-1.9-1.5-2.5-2.9-2.5c-3.8,0-6.2,2.9-6.9,5.7C6,10,5.6,9.5,5.5,8.9C7.3,6.3,10.3,4,13.5,4C15.4,4,17,5.2,17,6.9
		c0,3.3-4,6.6-8,6.6c-0.6,0-1.2-0.1-1.8-0.1C7.2,13.2,7.2,13,7.2,12.8z M7.4,10.9c0.8-2.9,3.3-5.1,6.1-5.1c1.5,0,2,0.6,2,1.3
		c0,1.8-3.3,4.1-6.5,4.1C8.4,11.1,7.9,11,7.4,10.9z M6.3,11.7c0,0.2,0,0.4,0,0.6c0,0.3,0,0.6,0,0.9c-1.1-0.3-1.9-0.7-2.5-1.3
		C4,11.3,4.3,10.7,4.7,10C5.1,10.8,5.6,11.4,6.3,11.7z"/>
	<g>
		<path class="st1" d="M86.4,9c-0.5-0.3-1.2-0.4-1.9-0.4c-0.9,0-1.6,0.2-2.3,0.6c-0.4,0.2-0.7,0.5-0.9,0.8c-0.2-0.3-0.5-0.6-0.8-0.8
			c-0.6-0.4-1.3-0.6-2.2-0.6c-0.7,0-1.4,0.1-1.9,0.5c-0.3,0.2-0.6,0.4-0.8,0.7v-1h-2.5v9h2.6v-4.5c0-0.5,0.1-1,0.2-1.3
			c0.2-0.3,0.4-0.6,0.7-0.8c0.3-0.2,0.6-0.3,1-0.3c0.6,0,1,0.2,1.3,0.5c0.3,0.3,0.4,0.9,0.4,1.6v4.7H82v-4.5c0-0.5,0.1-1,0.2-1.3
			c0.2-0.3,0.4-0.6,0.7-0.8c0.3-0.2,0.6-0.3,1-0.3c0.5,0,0.9,0.2,1.2,0.5c0.3,0.3,0.4,0.9,0.4,1.6v4.7h2.6v-5.1
			c0-0.9-0.1-1.6-0.5-2.2C87.4,9.7,87,9.3,86.4,9z"/>
		<path class="st1" d="M92.4,5c-0.3-0.3-0.7-0.4-1.2-0.4c-0.5,0-0.9,0.1-1.2,0.4c-0.3,0.3-0.4,0.6-0.4,1s0.2,0.7,0.4,1
			c0.3,0.3,0.7,0.4,1.2,0.4c0.5,0,0.9-0.1,1.2-0.4c0.3-0.3,0.4-0.6,0.4-1.1C92.8,5.6,92.7,5.2,92.4,5z"/>
		<rect x="89.9" y="8.7" class="st1" width="2.6" height="9"/>
		<path class="st1" d="M101.7,9c-0.6-0.3-1.2-0.4-1.9-0.4c-0.8,0-1.4,0.2-2,0.5c-0.4,0.2-0.7,0.4-0.9,0.7V8.7h-2.5v9h2.6v-4.4
			c0-0.6,0.1-1,0.3-1.4s0.4-0.6,0.8-0.8s0.7-0.3,1.1-0.3c0.6,0,1,0.2,1.3,0.5c0.3,0.3,0.5,0.9,0.5,1.6v4.7h2.6v-5.1
			c0-0.9-0.2-1.6-0.5-2.2C102.7,9.7,102.2,9.3,101.7,9z"/>
		<path class="st1" d="M112,9.7c-0.2-0.2-0.4-0.4-0.7-0.6c-0.6-0.3-1.2-0.5-2-0.5c-0.8,0-1.6,0.2-2.3,0.6s-1.2,0.9-1.6,1.6
			c-0.4,0.7-0.6,1.5-0.6,2.4c0,0.9,0.2,1.7,0.6,2.4c0.4,0.7,0.9,1.2,1.6,1.6c0.7,0.4,1.4,0.6,2.3,0.6c0.8,0,1.5-0.2,2-0.5
			c0.3-0.2,0.5-0.4,0.8-0.7v1h2.5V5.3H112L112,9.7L112,9.7z M111.8,14.5c-0.2,0.4-0.5,0.7-0.8,0.9c-0.3,0.2-0.7,0.3-1.2,0.3
			c-0.4,0-0.8-0.1-1.1-0.3c-0.3-0.2-0.6-0.5-0.8-0.9s-0.3-0.8-0.3-1.3c0-0.5,0.1-1,0.3-1.3c0.2-0.4,0.5-0.7,0.8-0.8s0.7-0.3,1.1-0.3
			c0.4,0,0.8,0.1,1.2,0.3s0.6,0.5,0.8,0.8c0.2,0.4,0.3,0.8,0.3,1.3C112.1,13.7,112,14.2,111.8,14.5z"/>
		<path class="st1" d="M120.4,16.4c-0.1,0-0.3,0.1-0.4,0.1c-0.4,0-0.8-0.1-1-0.4c-0.2-0.2-0.3-0.6-0.3-1.1V5.3H117v9.8
			c0,0.8,0.2,1.5,0.7,2s1.1,0.7,2,0.7c0.2,0,0.4,0,0.6-0.1s0.4-0.1,0.6-0.1l-0.1-1.3C120.6,16.3,120.5,16.4,120.4,16.4z"/>
		<path class="st1" d="M128.4,13c0,0.6-0.1,1.2-0.3,1.6c-0.2,0.4-0.5,0.8-1,1c-0.4,0.2-0.9,0.3-1.4,0.3c-0.8,0-1.4-0.2-1.8-0.7
			c-0.4-0.4-0.6-1.1-0.6-1.9V8.9h-1.6v4.6c0,0.9,0.2,1.6,0.5,2.1c0.3,0.6,0.8,1,1.3,1.3c0.6,0.3,1.2,0.4,2,0.4c0.7,0,1.4-0.2,2-0.5
			c0.4-0.2,0.7-0.5,1-0.8v0.7c0,1-0.2,1.7-0.7,2.2s-1.2,0.7-2.1,0.7c-0.6,0-1.2-0.1-1.7-0.3c-0.5-0.2-1-0.5-1.4-0.8l-0.8,1.2
			c0.5,0.4,1.1,0.8,1.8,1c0.7,0.2,1.5,0.3,2.2,0.3c1.4,0,2.5-0.4,3.2-1.1c0.7-0.7,1.1-1.9,1.1-3.4V8.9h-1.6V13L128.4,13z"/>
		<path class="st1" d="M135.4,16.4c-0.4,0-0.8-0.1-1-0.4c-0.2-0.2-0.4-0.6-0.4-1.1v-4.8h2.5V8.9h-2.5V6.9h-1.6V15
			c0,0.9,0.2,1.6,0.7,2s1.2,0.7,2.1,0.7c0.4,0,0.7-0.1,1.1-0.1c0.3-0.1,0.6-0.3,0.9-0.5l-0.5-1.1C136.4,16.3,136,16.4,135.4,16.4z"
			/>
		<path class="st1" d="M139.5,5.1c-0.3,0-0.6,0.1-0.8,0.3c-0.2,0.2-0.3,0.5-0.3,0.8c0,0.3,0.1,0.5,0.3,0.7c0.2,0.2,0.5,0.3,0.8,0.3
			c0.3,0,0.6-0.1,0.8-0.3c0.2-0.2,0.3-0.5,0.3-0.7c0-0.3-0.1-0.5-0.3-0.7C140.1,5.2,139.8,5.1,139.5,5.1z"/>
		<rect x="138.7" y="8.9" class="st1" width="1.6" height="8.8"/>
		<path class="st1" d="M145.3,10.6c0.5-0.3,1-0.4,1.6-0.4c0.5,0,0.9,0.1,1.3,0.3c0.4,0.2,0.8,0.5,1.1,1l1.2-0.8
			c-0.3-0.6-0.8-1.1-1.5-1.4c-0.6-0.3-1.4-0.5-2.1-0.5c-0.9,0-1.7,0.2-2.4,0.6s-1.3,0.9-1.6,1.6c-0.4,0.7-0.6,1.5-0.6,2.3
			s0.2,1.6,0.6,2.3c0.4,0.7,1,1.2,1.6,1.6c0.7,0.4,1.5,0.6,2.4,0.6c0.8,0,1.5-0.2,2.1-0.5c0.6-0.3,1.1-0.8,1.5-1.4l-1.2-0.8
			c-0.3,0.4-0.6,0.7-1.1,1c-0.4,0.2-0.9,0.3-1.3,0.3c-0.6,0-1.1-0.1-1.6-0.4s-0.8-0.6-1.1-1.1c-0.3-0.5-0.4-1-0.4-1.6
			c0-0.6,0.1-1.2,0.4-1.7C144.5,11.2,144.8,10.8,145.3,10.6z"/>
		<path class="st1" d="M157.9,13.3c-0.3-0.2-0.7-0.3-1.1-0.4c-0.4-0.1-0.8-0.2-1.2-0.2c-0.4-0.1-0.8-0.1-1.1-0.2
			c-0.3-0.1-0.6-0.2-0.8-0.4c-0.2-0.2-0.3-0.4-0.3-0.7c0-0.4,0.2-0.7,0.5-0.9c0.3-0.2,0.9-0.3,1.6-0.3c0.4,0,0.9,0.1,1.3,0.2
			c0.4,0.1,0.8,0.3,1.3,0.5l0.7-1.3c-0.4-0.3-0.9-0.4-1.5-0.6c-0.6-0.1-1.2-0.2-1.8-0.2c-0.8,0-1.4,0.1-1.9,0.3
			c-0.5,0.2-1,0.5-1.3,0.9c-0.3,0.4-0.5,0.9-0.5,1.4c0,0.5,0.1,0.9,0.3,1.2c0.2,0.3,0.5,0.5,0.8,0.7c0.3,0.2,0.7,0.3,1.1,0.4
			c0.4,0.1,0.8,0.2,1.2,0.2c0.4,0.1,0.8,0.1,1.1,0.2c0.3,0.1,0.6,0.2,0.8,0.4c0.2,0.1,0.3,0.4,0.3,0.7c0,0.4-0.2,0.7-0.5,0.9
			c-0.3,0.2-0.9,0.3-1.6,0.3c-0.6,0-1.1-0.1-1.7-0.3c-0.6-0.2-1-0.4-1.4-0.7l-0.7,1.3c0.4,0.3,0.9,0.5,1.6,0.7
			c0.7,0.2,1.4,0.3,2.1,0.3c0.8,0,1.5-0.1,2-0.3c0.6-0.2,1-0.5,1.3-0.9c0.3-0.4,0.5-0.8,0.5-1.4c0-0.5-0.1-0.9-0.3-1.2
			C158.5,13.7,158.3,13.5,157.9,13.3z"/>
		<path class="st1" d="M161.1,15.5c-0.3,0-0.6,0.1-0.8,0.3c-0.2,0.2-0.3,0.5-0.3,0.8c0,0.3,0.1,0.6,0.3,0.8c0.2,0.2,0.5,0.3,0.8,0.3
			s0.5-0.1,0.8-0.3s0.3-0.5,0.3-0.8s-0.1-0.6-0.3-0.8C161.7,15.6,161.4,15.5,161.1,15.5z"/>
		<path class="st1" d="M170.1,10.3c-0.3-0.4-0.6-0.7-1.1-0.9c-0.6-0.3-1.3-0.5-2-0.5c-0.8,0-1.6,0.2-2.2,0.6
			c-0.7,0.4-1.2,0.9-1.6,1.6c-0.4,0.7-0.6,1.4-0.6,2.3s0.2,1.7,0.6,2.3c0.4,0.7,0.9,1.2,1.6,1.6s1.4,0.6,2.2,0.6
			c0.8,0,1.4-0.2,2-0.5c0.4-0.2,0.8-0.6,1.1-1v1.4h1.5V9h-1.6V10.3z M169.7,15c-0.3,0.5-0.6,0.8-1.1,1.1c-0.4,0.2-0.9,0.4-1.5,0.4
			c-0.6,0-1.1-0.1-1.5-0.4c-0.5-0.2-0.8-0.6-1.1-1.1s-0.4-1-0.4-1.6c0-0.6,0.1-1.2,0.4-1.6c0.3-0.4,0.6-0.8,1.1-1
			c0.4-0.2,0.9-0.4,1.5-0.4c0.5,0,1,0.1,1.5,0.4c0.5,0.2,0.8,0.6,1.1,1c0.3,0.5,0.4,1,0.4,1.6C170.1,14,170,14.5,169.7,15z"/>
		<rect x="173.9" y="9" class="st1" width="1.6" height="8.7"/>
		<path class="st1" d="M174.7,7.3c0.3,0,0.6-0.1,0.8-0.3s0.3-0.5,0.3-0.7c0-0.3-0.1-0.5-0.3-0.7c-0.2-0.2-0.4-0.3-0.8-0.3
			c-0.3,0-0.6,0.1-0.8,0.3c-0.2,0.2-0.3,0.4-0.3,0.7s0.1,0.5,0.3,0.7C174.2,7.2,174.4,7.3,174.7,7.3z"/>
	</g>
</g>
</svg>
